# xmcd
#
# Track frame offsets:
#	150
#	20970
#	39315
#	57650
#
# Disc length: 1045 seconds
#
# Revision: 2
# Processed by: cddbd v1.5.1PL0 Copyright (c) Steve Scherf et al.
# Submitted via: EasyCDDAExtractor 8.0.2.1
#
DISCID=34041304
DTITLE=Aaron Hall - Curiosity [CD Single)
DYEAR=1995
DGENRE=R&B
TTITLE0=Curiosity (Marley Marl Remix (Radio Version))
TTITLE1=Curiosity (Misdemenor)
TTITLE2=Curiosity (LP Version)
TTITLE3=Curiosity (Marley Marl Remix (Instrumental))
EXTD=
EXTT0=
EXTT1=
EXTT2=
EXTT3=
PLAYORDER=
